<svg width="1420" height="215" xmlns="http://www.w3.org/2000/svg" xmlns:svg="http://www.w3.org/2000/svg" font-family="Phenomena" font-size="72px" font-style="normal" font-weight="700" text-anchor="middle" fill="#fff">
  <path d="m95.072119,4.233734l-90.250439,0c-2.351803,0 -3.82168,1.469877 -3.82168,3.82168l0,16.756596c0,2.645778 1.469877,4.115655 3.82168,4.115655l32.043316,0l0,176.973174c0,2.645778 1.469877,4.115655 3.82168,4.115655l18.520448,0c2.645778,0 4.115655,-1.469877 4.115655,-4.115655l0,-176.973174l31.74934,0c2.645778,0 4.115655,-1.469877 4.115655,-4.115655l0,-16.756596c0,-2.351803 -1.469877,-3.82168 -4.115655,-3.82168z"/>
  <path d="m148.80645,210.016479l18.814424,0c2.351803,0 3.82168,-1.469877 3.82168,-4.115655l0,-65.262533l47.62401,0l0,65.262533c0,2.645778 1.763852,4.115655 4.115655,4.115655l18.520448,0c2.645778,0 4.115655,-1.469877 4.115655,-4.115655l0,-150.515391c0,-32.337291 -20.284301,-54.091469 -50.563764,-54.091469c-30.279463,0 -50.269789,21.754178 -50.269789,54.091469l0,150.515391c0,2.645778 1.469877,4.115655 3.82168,4.115655zm22.636104,-93.778144l0,-62.028804c0,-17.638522 8.819261,-27.92766 23.812005,-27.92766c15.286719,0 23.812005,10.289138 23.812005,27.92766l0,62.028804l-47.62401,0z"/>
  <path d="m356.174798,186.20449c-13.522867,0 -23.224054,-11.171064 -23.224054,-27.92766l0,-150.221416c0,-2.351803 -1.469877,-3.82168 -4.115614,-3.82168l-18.814465,0c-2.351803,0 -3.82168,1.469877 -3.82168,3.82168l0,151.103342c0,29.397537 18.520448,51.739666 48.505977,51.739666l29.691513,0c2.645738,0 4.115614,-1.469877 4.115614,-3.82168l0,-16.756596c0,-2.645778 -1.469877,-4.115655 -4.115614,-4.115655l-28.221677,0z"/>
  <path d="m475.980011,210.898421l30.867414,0c2.351762,0 3.821639,-1.469877 3.821639,-3.82168l0,-16.756596c0,-2.645778 -1.469877,-4.115655 -3.821639,-4.115655l-28.809627,0c-15.286719,0 -25.575817,-11.759015 -25.575817,-28.515611l0,-39.686675l47.036019,0c2.645778,0 4.115655,-1.469877 4.115655,-4.115655l0,-15.87467c0,-2.645778 -1.469877,-4.115655 -4.115655,-4.115655l-47.036019,0l0,-37.334872c0,-16.756596 10.289097,-28.515611 25.575817,-28.515611l28.809627,0c2.351762,0 3.821639,-1.469877 3.821639,-4.115655l0,-16.756596c0,-2.351803 -1.469877,-3.82168 -3.821639,-3.82168l-30.867414,0c-29.691513,0 -50.26983,22.342128 -50.26983,52.621592l0,102.30343c0,30.279463 20.578317,52.621592 50.26983,52.621592z"/>
  <path d="m610.7825,213.250224c29.985488,0 49.681838,-22.636104 50.85774,-58.207124c0,-2.645778 -1.469877,-4.115655 -3.82168,-4.115655l-18.814424,0c-2.351803,0 -3.82168,1.175901 -3.82168,3.82168c-0.587951,21.460202 -9.701187,33.513193 -24.693931,33.513193c-14.698769,0 -23.224054,-9.995163 -23.224054,-26.457784l0,-109.358839c0,-16.462621 8.525286,-26.457784 23.224054,-26.457784c13.522867,0 22.636104,10.877089 23.224054,31.455365c0,2.645778 1.469877,3.82168 3.82168,3.82168l18.814424,0c2.645778,0 3.82168,-1.469877 3.82168,-3.82168c-0.881926,-34.395119 -20.578276,-56.443272 -49.387863,-56.443272c-29.985488,0 -50.269789,21.166227 -50.269789,52.915567l0,106.419085c0,31.74934 20.284301,52.915567 50.269789,52.915567z"/>
  <path d="m785.248842,8.055414l0,85.546833l-45.272207,0l0,-85.546833c0,-2.351803 -1.469877,-3.82168 -3.82168,-3.82168l-18.520448,0c-2.645778,0 -4.115655,1.469877 -4.115655,3.82168l0,197.845426c0,2.645778 1.469877,4.115655 4.115655,4.115655l18.520448,0c2.351803,0 3.82168,-1.469877 3.82168,-4.115655l0,-87.898636l45.272207,0l0,87.898636c0,2.645778 1.469877,4.115655 4.115655,4.115655l18.520448,0c2.351803,0 3.82168,-1.469877 3.82168,-4.115655l0,-197.845426c0,-2.351803 -1.469877,-3.82168 -3.82168,-3.82168l-18.520448,0c-2.645778,0 -4.115655,1.469877 -4.115655,3.82168z"/>
  <path d="m922.34344,212.956233c30.573439,0 51.739666,-22.342128 51.739666,-53.209542l0,-105.243183c0,-30.867414 -21.166227,-53.209542 -51.739666,-53.209542c-30.573439,0 -52.033641,22.342128 -52.033641,55.26737l0,101.127528c0,32.925242 21.460202,55.26737 52.033641,55.26737zm0,-24.693931c-14.992744,0 -25.281882,-11.171064 -25.281882,-29.397537l0,-103.479331c0,-18.226473 10.289138,-29.397537 25.281882,-29.397537c14.992744,0 24.987907,11.171064 24.987907,27.33971l0,107.594986c0,16.168646 -9.995163,27.33971 -24.987907,27.33971z"/>
  <path d="m1080.112796,212.956233c30.573398,0 51.739625,-22.342128 51.739625,-53.209542l0,-105.243183c0,-30.867414 -21.166227,-53.209542 -51.739625,-53.209542c-30.57348,0 -52.033682,22.342128 -52.033682,55.26737l0,101.127528c0,32.925242 21.460202,55.26737 52.033682,55.26737zm0,-24.693931c-14.992785,0 -25.281882,-11.171064 -25.281882,-29.397537l0,-103.479331c0,-18.226473 10.289097,-29.397537 25.281882,-29.397537c14.992703,0 24.987907,11.171064 24.987907,27.33971l0,107.594986c0,16.168646 -9.995204,27.33971 -24.987907,27.33971z"/>
  <path d="m1233.47248,213.250224c30.573439,0 50.85774,-19.108399 50.85774,-49.387863c0,-59.970976 -74.081794,-73.787819 -74.081794,-115.826297c0,-14.698769 7.937335,-22.342128 22.342128,-22.342128c13.816843,0 21.754178,9.995163 22.636104,31.74934c0,2.351803 1.469877,3.82168 3.82168,3.82168l18.520448,0c2.645778,0 3.82168,-1.469877 3.82168,-3.82168c-1.175901,-34.395119 -20.284301,-56.443272 -49.093887,-56.443272c-29.103562,0 -48.505937,18.226473 -48.505937,47.03606c0,56.443272 73.787819,70.260114 73.787819,115.826297c0,15.87467 -8.23131,24.399956 -23.812005,24.399956c-15.87467,0 -24.399956,-11.171064 -24.987907,-33.513193c-0.293975,-2.351803 -1.763852,-3.82168 -4.115655,-3.82168l-18.520448,0c-2.645778,0 -4.115655,1.469877 -4.115655,4.115655c1.175901,35.57102 20.872251,58.207124 51.44569,58.207124z"/>
  <path d="m1384.700884,210.898421l30.867373,0c2.351803,0 3.82168,-1.469877 3.82168,-3.82168l0,-16.756596c0,-2.645778 -1.469877,-4.115655 -3.82168,-4.115655l-28.809546,0c-15.28676,0 -25.575857,-11.759015 -25.575857,-28.515611l0,-39.686675l47.036019,0c2.645819,0 4.115696,-1.469877 4.115696,-4.115655l0,-15.87467c0,-2.645778 -1.469877,-4.115655 -4.115696,-4.115655l-47.036019,0l0,-37.334872c0,-16.756596 10.289097,-28.515611 25.575857,-28.515611l28.809546,0c2.351803,0 3.82168,-1.469877 3.82168,-4.115655l0,-16.756596c0,-2.351803 -1.469877,-3.82168 -3.82168,-3.82168l-30.867373,0c-29.691553,0 -50.26983,22.342128 -50.26983,52.621592l0,102.30343c0,30.279463 20.578276,52.621592 50.26983,52.621592z"/>
</svg>